<svg xmlns="http://www.w3.org/2000/svg" width="134" height="106" fill="none" viewBox="0 0 134 106"><circle cx="1.667" cy="104" r="1.667" fill="#fff" transform="rotate(-90 1.66667 104)"/><circle cx="16.333" cy="104" r="1.667" fill="#fff" transform="rotate(-90 16.3333 104)"/><circle cx="31" cy="104" r="1.667" fill="#fff" transform="rotate(-90 31 104)"/><circle cx="45.667" cy="104" r="1.667" fill="#fff" transform="rotate(-90 45.6667 104)"/><circle cx="60.333" cy="104" r="1.667" fill="#fff" transform="rotate(-90 60.3333 104)"/><circle cx="88.667" cy="104" r="1.667" fill="#fff" transform="rotate(-90 88.6667 104)"/><circle cx="117.667" cy="104" r="1.667" fill="#fff" transform="rotate(-90 117.667 104)"/><circle cx="74.667" cy="104" r="1.667" fill="#fff" transform="rotate(-90 74.6667 104)"/><circle cx="103" cy="104" r="1.667" fill="#fff" transform="rotate(-90 103 104)"/><circle cx="132" cy="104" r="1.667" fill="#fff" transform="rotate(-90 132 104)"/><circle cx="1.667" cy="89.333" r="1.667" fill="#fff" transform="rotate(-90 1.66667 89.3333)"/><circle cx="16.333" cy="89.333" r="1.667" fill="#fff" transform="rotate(-90 16.3333 89.3333)"/><circle cx="31" cy="89.333" r="1.667" fill="#fff" transform="rotate(-90 31 89.3333)"/><circle cx="45.667" cy="89.333" r="1.667" fill="#fff" transform="rotate(-90 45.6667 89.3333)"/><circle cx="60.333" cy="89.334" r="1.667" fill="#fff" transform="rotate(-90 60.3333 89.3338)"/><circle cx="88.667" cy="89.334" r="1.667" fill="#fff" transform="rotate(-90 88.6667 89.3338)"/><circle cx="117.667" cy="89.334" r="1.667" fill="#fff" transform="rotate(-90 117.667 89.3338)"/><circle cx="74.667" cy="89.334" r="1.667" fill="#fff" transform="rotate(-90 74.6667 89.3338)"/><circle cx="103" cy="89.334" r="1.667" fill="#fff" transform="rotate(-90 103 89.3338)"/><circle cx="132" cy="89.334" r="1.667" fill="#fff" transform="rotate(-90 132 89.3338)"/><circle cx="1.667" cy="74.667" r="1.667" fill="#fff" transform="rotate(-90 1.66667 74.6673)"/><circle cx="1.667" cy="31" r="1.667" fill="#fff" transform="rotate(-90 1.66667 31.0003)"/><circle cx="16.333" cy="74.667" r="1.667" fill="#fff" transform="rotate(-90 16.3333 74.6668)"/><circle cx="16.333" cy="31" r="1.667" fill="#fff" transform="rotate(-90 16.3333 31.0003)"/><circle cx="31" cy="74.667" r="1.667" fill="#fff" transform="rotate(-90 31 74.6668)"/><circle cx="31" cy="31" r="1.667" fill="#fff" transform="rotate(-90 31 31.0003)"/><circle cx="45.667" cy="74.667" r="1.667" fill="#fff" transform="rotate(-90 45.6667 74.6668)"/><circle cx="45.667" cy="31" r="1.667" fill="#fff" transform="rotate(-90 45.6667 31.0003)"/><circle cx="60.333" cy="74.667" r="1.667" fill="#fff" transform="rotate(-90 60.3333 74.6668)"/><circle cx="60.333" cy="31" r="1.667" fill="#fff" transform="rotate(-90 60.3333 31.0001)"/><circle cx="88.667" cy="74.667" r="1.667" fill="#fff" transform="rotate(-90 88.6667 74.6668)"/><circle cx="88.667" cy="31" r="1.667" fill="#fff" transform="rotate(-90 88.6667 31.0001)"/><circle cx="117.667" cy="74.667" r="1.667" fill="#fff" transform="rotate(-90 117.667 74.6668)"/><circle cx="117.667" cy="31" r="1.667" fill="#fff" transform="rotate(-90 117.667 31.0001)"/><circle cx="74.667" cy="74.667" r="1.667" fill="#fff" transform="rotate(-90 74.6667 74.6668)"/><circle cx="74.667" cy="31" r="1.667" fill="#fff" transform="rotate(-90 74.6667 31.0001)"/><circle cx="103" cy="74.667" r="1.667" fill="#fff" transform="rotate(-90 103 74.6668)"/><circle cx="103" cy="31" r="1.667" fill="#fff" transform="rotate(-90 103 31.0001)"/><circle cx="132" cy="74.667" r="1.667" fill="#fff" transform="rotate(-90 132 74.6668)"/><circle cx="132" cy="31" r="1.667" fill="#fff" transform="rotate(-90 132 31.0001)"/><circle cx="1.667" cy="60" r="1.667" fill="#fff" transform="rotate(-90 1.66667 60.0003)"/><circle cx="1.667" cy="16.334" r="1.667" fill="#fff" transform="rotate(-90 1.66667 16.3336)"/><circle cx="16.333" cy="60" r="1.667" fill="#fff" transform="rotate(-90 16.3333 60.0003)"/><circle cx="16.333" cy="16.334" r="1.667" fill="#fff" transform="rotate(-90 16.3333 16.3336)"/><circle cx="31" cy="60" r="1.667" fill="#fff" transform="rotate(-90 31 60.0003)"/><circle cx="31" cy="16.334" r="1.667" fill="#fff" transform="rotate(-90 31 16.3336)"/><circle cx="45.667" cy="60" r="1.667" fill="#fff" transform="rotate(-90 45.6667 60.0003)"/><circle cx="45.667" cy="16.334" r="1.667" fill="#fff" transform="rotate(-90 45.6667 16.3336)"/><circle cx="60.333" cy="60" r="1.667" fill="#fff" transform="rotate(-90 60.3333 60.0003)"/><circle cx="60.333" cy="16.334" r="1.667" fill="#fff" transform="rotate(-90 60.3333 16.3336)"/><circle cx="88.667" cy="60" r="1.667" fill="#fff" transform="rotate(-90 88.6667 60.0003)"/><circle cx="88.667" cy="16.334" r="1.667" fill="#fff" transform="rotate(-90 88.6667 16.3336)"/><circle cx="117.667" cy="60" r="1.667" fill="#fff" transform="rotate(-90 117.667 60.0003)"/><circle cx="117.667" cy="16.334" r="1.667" fill="#fff" transform="rotate(-90 117.667 16.3336)"/><circle cx="74.667" cy="60" r="1.667" fill="#fff" transform="rotate(-90 74.6667 60.0003)"/><circle cx="74.667" cy="16.334" r="1.667" fill="#fff" transform="rotate(-90 74.6667 16.3336)"/><circle cx="103" cy="60" r="1.667" fill="#fff" transform="rotate(-90 103 60.0003)"/><circle cx="103" cy="16.334" r="1.667" fill="#fff" transform="rotate(-90 103 16.3336)"/><circle cx="132" cy="60" r="1.667" fill="#fff" transform="rotate(-90 132 60.0003)"/><circle cx="132" cy="16.334" r="1.667" fill="#fff" transform="rotate(-90 132 16.3336)"/><circle cx="1.667" cy="45.334" r="1.667" fill="#fff" transform="rotate(-90 1.66667 45.3336)"/><circle cx="1.667" cy="1.667" r="1.667" fill="#fff" transform="rotate(-90 1.66667 1.66683)"/><circle cx="16.333" cy="45.334" r="1.667" fill="#fff" transform="rotate(-90 16.3333 45.3336)"/><circle cx="16.333" cy="1.667" r="1.667" fill="#fff" transform="rotate(-90 16.3333 1.66683)"/><circle cx="31" cy="45.334" r="1.667" fill="#fff" transform="rotate(-90 31 45.3336)"/><circle cx="31" cy="1.667" r="1.667" fill="#fff" transform="rotate(-90 31 1.66683)"/><circle cx="45.667" cy="45.334" r="1.667" fill="#fff" transform="rotate(-90 45.6667 45.3336)"/><circle cx="45.667" cy="1.667" r="1.667" fill="#fff" transform="rotate(-90 45.6667 1.66683)"/><circle cx="60.333" cy="45.334" r="1.667" fill="#fff" transform="rotate(-90 60.3333 45.3338)"/><circle cx="60.333" cy="1.667" r="1.667" fill="#fff" transform="rotate(-90 60.3333 1.66707)"/><circle cx="88.667" cy="45.334" r="1.667" fill="#fff" transform="rotate(-90 88.6667 45.3338)"/><circle cx="88.667" cy="1.667" r="1.667" fill="#fff" transform="rotate(-90 88.6667 1.66707)"/><circle cx="117.667" cy="45.334" r="1.667" fill="#fff" transform="rotate(-90 117.667 45.3338)"/><circle cx="117.667" cy="1.667" r="1.667" fill="#fff" transform="rotate(-90 117.667 1.66707)"/><circle cx="74.667" cy="45.334" r="1.667" fill="#fff" transform="rotate(-90 74.6667 45.3338)"/><circle cx="74.667" cy="1.667" r="1.667" fill="#fff" transform="rotate(-90 74.6667 1.66707)"/><circle cx="103" cy="45.334" r="1.667" fill="#fff" transform="rotate(-90 103 45.3338)"/><circle cx="103" cy="1.667" r="1.667" fill="#fff" transform="rotate(-90 103 1.66707)"/><circle cx="132" cy="45.334" r="1.667" fill="#fff" transform="rotate(-90 132 45.3338)"/><circle cx="132" cy="1.667" r="1.667" fill="#fff" transform="rotate(-90 132 1.66707)"/></svg>